<svg width="98" height="22" viewBox="0 0 98 22" fill="none" xmlns="http://www.w3.org/2000/svg">
<g clip-path="url(#clip0_1142_3968)">
<path d="M20.6175 11.6836C20.6175 10.3444 19.5319 9.25879 18.1927 9.25879C16.8535 9.25879 15.7678 10.3444 15.7678 11.6836C15.7678 13.0228 16.8535 14.1085 18.1927 14.1085C19.5319 14.1085 20.6175 13.0228 20.6175 11.6836Z" fill="#B8EF43"/>
<path d="M4.85164 11.6836C4.85164 10.3444 3.766 9.25879 2.4268 9.25879C1.08759 9.25879 0.00195312 10.3444 0.00195312 11.6836C0.00195312 13.0228 1.08759 14.1085 2.4268 14.1085C3.766 14.1085 4.85164 13.0228 4.85164 11.6836Z" fill="#B8EF43"/>
<path d="M12.7315 11.6836C12.7315 10.3444 11.6459 9.25879 10.3067 9.25879C8.96748 9.25879 7.88184 10.3444 7.88184 11.6836C7.88184 13.0228 8.96748 14.1085 10.3067 14.1085C11.6459 14.1085 12.7315 13.0228 12.7315 11.6836Z" fill="#B8EF43"/>
<path d="M4.85164 19.5645C4.85164 18.2253 3.766 17.1396 2.4268 17.1396C1.08759 17.1396 0.00195312 18.2253 0.00195312 19.5645C0.00195312 20.9037 1.08759 21.9893 2.4268 21.9893C3.766 21.9893 4.85164 20.9037 4.85164 19.5645Z" fill="#B8EF43"/>
<path d="M12.7315 19.5645C12.7315 18.2253 11.6459 17.1396 10.3067 17.1396C8.96748 17.1396 7.88184 18.2253 7.88184 19.5645C7.88184 20.9037 8.96748 21.9893 10.3067 21.9893C11.6459 21.9893 12.7315 20.9037 12.7315 19.5645Z" fill="#B8EF43"/>
<path d="M0.275391 3.65144C0.275391 2.46296 1.23884 1.49952 2.4273 1.49952C3.61578 1.49952 4.57923 2.46296 4.57923 3.65144C4.57923 4.83992 3.61578 5.80335 2.4273 5.80335C1.23884 5.80335 0.275391 4.83992 0.275391 3.65144ZM8.15533 3.65144C8.15533 2.46296 9.11879 1.49952 10.3072 1.49952C11.4957 1.49952 12.4592 2.46296 12.4592 3.65144C12.4592 4.83992 11.4957 5.80337 10.3072 5.80337C9.11879 5.80337 8.15533 4.83992 8.15533 3.65144ZM16.0406 19.565C16.0406 18.3765 17.004 17.413 18.1925 17.413C19.381 17.413 20.3444 18.3765 20.3444 19.565C20.3444 20.7535 19.381 21.7169 18.1925 21.7169C17.004 21.7169 16.0406 20.7535 16.0406 19.565ZM18.1855 6.56973C17.5829 5.28774 16.5502 4.25512 15.2676 3.65191C16.5496 3.04924 17.5822 2.01649 18.1854 0.733887C18.7881 2.01586 19.8209 3.0485 21.1034 3.65171C19.8214 4.25438 18.7887 5.28712 18.1855 6.56973Z" stroke="#0A0A0A" stroke-width="0.952445"/>
<path d="M29.3965 11.3131C29.3965 6.61855 31.356 3.72021 35.8871 3.72021C40.4184 3.72021 42.3779 6.61855 42.3779 11.3131C42.3779 16.0076 40.4184 18.9058 35.8871 18.9058C31.356 18.9058 29.3965 16.0076 29.3965 11.3131ZM40.4999 11.3131C40.4999 7.088 38.7856 5.29184 35.928 5.29184C32.9888 5.29184 31.2743 7.088 31.2743 11.3131C31.2743 15.5381 32.9888 17.3343 35.8464 17.3343C38.7856 17.3343 40.4999 15.5381 40.4999 11.3131Z" fill="#0A0A0A"/>
<path d="M44.9336 7.63916H46.6686V15.4565C46.6686 16.6199 47.2604 17.3344 48.5872 17.3344C49.6893 17.3344 51.1181 16.7628 52.506 15.9464V7.63916H54.241V18.6611H52.7918L52.6284 17.3344C51.0569 18.2527 49.4647 18.9059 48.1177 18.9059C46.0562 18.9059 44.9336 17.8243 44.9336 15.7831V7.63916Z" fill="#0A0A0A"/>
<path d="M59.6786 7.63935H63.2098V9.14975H59.6786V16.069C59.6786 17.0487 60.3522 17.3345 61.1075 17.3345C61.6585 17.3345 62.2912 17.212 62.8014 17.0487V18.5796C62.0259 18.7224 61.0666 18.8857 60.2909 18.8857C58.9847 18.8857 57.9234 18.4368 57.9234 16.4773V9.14975H56.3721V8.04757L56.7394 7.63935H57.9234V6.29223L58.9643 5.21045H59.6786V7.63935Z" fill="#0A0A0A"/>
<path d="M68.2101 17.3954C69.9042 17.3954 70.7819 16.8035 70.7819 15.4971C70.7819 14.15 69.7001 13.9867 68.1079 13.7622C66.4138 13.5173 64.5156 13.1091 64.5156 10.6394C64.5156 8.16965 66.4955 7.39404 68.9041 7.39404C69.9655 7.39404 71.0675 7.51651 71.9657 7.65938V9.23101C71.1084 9.08813 69.9655 8.92485 69.0878 8.92485C67.1283 8.92485 66.3119 9.45554 66.3119 10.5577C66.3119 11.864 67.3732 12.0477 68.9244 12.2518C70.6593 12.4968 72.578 12.8233 72.578 15.4155C72.578 17.6402 71.1697 18.9057 68.312 18.9057C67.0466 18.9057 65.5159 18.7833 64.5769 18.6812V17.0688C65.9648 17.2729 67.2915 17.3954 68.2101 17.3954Z" fill="#0A0A0A"/>
<path d="M83.076 7.63902V7.92477C83.076 9.94546 82.4024 11.8233 80.239 12.9458L81.4227 15.0482C82.1983 16.4361 82.9128 17.2117 84.0761 17.2117V18.7425C83.872 18.7834 83.6883 18.7834 83.4842 18.7834C81.9329 18.7834 80.892 17.7016 80.1368 16.3341L78.6673 13.6398L76.7486 14.4359V18.661H75.0137V3.0874H76.7486V12.8846L78.606 12.1294C79.8715 11.5987 81.341 10.7415 81.341 8.08807V7.63902H83.076Z" fill="#0A0A0A"/>
<path d="M87.9108 7.6391V18.6611H86.1759V7.6391H87.9108ZM87.9313 3.72021V5.86335H86.135V3.72021H87.9313Z" fill="#0A0A0A"/>
<path d="M92.9159 3.0874V18.661H91.1809V3.0874H92.9159Z" fill="#0A0A0A"/>
<path d="M97.9986 3.0874V18.661H96.2637V3.0874H97.9986Z" fill="#0A0A0A"/>
</g>
<defs>
<clipPath id="clip0_1142_3968">
<rect width="98" height="21.9972" fill="white"/>
</clipPath>
</defs>
</svg>
