<svg width="30" height="30" viewBox="0 0 30 30" fill="none" xmlns="http://www.w3.org/2000/svg">
<rect width="29.397" height="29.2324" rx="6.50986" fill="white"/>
<path d="M19.6138 21.2177C18.462 21.0831 16.9281 20.9039 16.5475 19.5375H22.8026C25.8425 19.5375 25.9609 14.5031 25.5794 12.4266C23.4481 0.834241 2.65122 1.64591 4.17331 16.0026C4.90322 22.886 12.3407 26.1657 18.5467 24.305C19.5061 24.0171 22.0309 22.6794 20.8644 21.5304C20.6726 21.3414 20.1912 21.2852 19.6138 21.2177Z" fill="black"/>
<path d="M15.7163 15.006C15.2887 15.4296 14.096 15.4152 13.8808 14.6946C13.7744 14.338 13.7589 11.2393 13.866 10.9299C14.1122 10.2208 15.6813 10.3075 15.9403 11.1553C16.0992 11.6756 16.0645 14.6604 15.7163 15.0057V15.006Z" fill="white"/>
</svg>
