<svg width="68" height="29" viewBox="0 0 68 29" fill="none" xmlns="http://www.w3.org/2000/svg">
<path d="M25.3221 23.2859V20.0784L17.0312 28.5001C16.1079 28.6921 15.1521 28.7931 14.1728 28.7931C12.6732 28.7931 11.2279 28.5566 9.8711 28.1178C4.14678 26.2681 0 20.8243 0 14.3965C0 6.44542 6.34527 0 14.1728 0C21.0831 0 26.8381 5.02305 28.0921 11.6708C28.2584 12.5534 28.3457 13.4644 28.3457 14.3965C28.3457 17.7515 27.216 20.8381 25.3221 23.2859Z" fill="#056A67"/>
<path d="M29.5926 11.6709V27.4879H25.3219V20.0785L17.031 28.5003C16.1077 28.6922 15.1518 28.7932 14.1726 28.7932C12.6729 28.7932 11.2277 28.5567 9.87085 28.1179L21.7915 16.0091H13.4545V11.6709H29.5926Z" fill="#37ED81"/>
<path d="M36.9897 14.9461H38.3877V17.6405C38.0122 17.9217 37.5901 18.1339 37.1411 18.2673C36.6801 18.4121 36.1999 18.4861 35.7169 18.487C35.0732 18.4982 34.4371 18.3461 33.8674 18.0447C33.3333 17.7641 32.8867 17.3404 32.5771 16.8205C32.2717 16.2815 32.1111 15.6719 32.1111 15.0515C32.1111 14.4312 32.2717 13.8216 32.5771 13.2826C32.8872 12.7592 33.3373 12.334 33.8761 12.0554C34.4524 11.7547 35.0939 11.6028 35.7431 11.6132C36.2823 11.6067 36.8176 11.7062 37.3188 11.9061C37.7772 12.093 38.1854 12.386 38.5101 12.7613L37.5285 13.6721C37.3111 13.4352 37.0465 13.247 36.7519 13.1198C36.4573 12.9926 36.1394 12.9293 35.8188 12.9341C35.4286 12.926 35.0428 13.0177 34.6975 13.2006C34.3736 13.3673 34.1046 13.6246 33.9227 13.9415C33.7425 14.2824 33.6482 14.6626 33.6482 15.0486C33.6482 15.4347 33.7425 15.8148 33.9227 16.1557C34.1011 16.4732 34.3644 16.734 34.6829 16.9084C35.0231 17.0942 35.4055 17.188 35.7926 17.1807C36.2067 17.1834 36.615 17.0828 36.9809 16.8879L36.9897 14.9461ZM41.8158 13.3822C42.1445 13.2502 42.496 13.1855 42.8498 13.1918V14.5566C42.6867 14.5566 42.576 14.539 42.5207 14.539C42.3404 14.5282 42.1598 14.5541 41.9897 14.6149C41.8196 14.6758 41.6634 14.7705 41.5304 14.8934C41.4013 15.0377 41.3027 15.2068 41.2406 15.3906C41.1786 15.5744 41.1543 15.7689 41.1692 15.9624V18.3727H39.713V13.2679H41.1197V13.9415C41.2957 13.6938 41.5367 13.5002 41.8158 13.3822V13.3822ZM44.6585 18.1121C44.2467 17.8997 43.9018 17.5762 43.6624 17.1778C43.4277 16.7643 43.3043 16.2964 43.3043 15.8203C43.3043 15.3442 43.4277 14.8764 43.6624 14.4629C43.9005 14.0613 44.2455 13.7346 44.6585 13.5198C45.1051 13.2982 45.5964 13.1829 46.0944 13.1829C46.5924 13.1829 47.0837 13.2982 47.5303 13.5198C47.9399 13.7332 48.2827 14.0566 48.5206 14.4541C48.7573 14.8669 48.8819 15.335 48.8819 15.8116C48.8819 16.2881 48.7573 16.7562 48.5206 17.169C48.2827 17.5665 47.9399 17.8899 47.5303 18.1033C47.0837 18.3249 46.5924 18.4402 46.0944 18.4402C45.5964 18.4402 45.1051 18.3249 44.6585 18.1033V18.1121ZM47.0294 16.8498C47.2625 16.5596 47.3896 16.1978 47.3896 15.8247C47.3896 15.4517 47.2625 15.0899 47.0294 14.7997C46.9117 14.6695 46.7675 14.5663 46.6067 14.4971C46.4459 14.4279 46.2722 14.3942 46.0973 14.3984C45.9234 14.3925 45.7502 14.4237 45.5891 14.4898C45.428 14.5559 45.2825 14.6555 45.1624 14.7821C44.9272 15.0714 44.7987 15.4335 44.7987 15.8072C44.7987 16.1808 44.9272 16.5429 45.1624 16.8322C45.2829 16.9584 45.4284 17.0577 45.5894 17.1238C45.7504 17.1898 45.9235 17.2212 46.0973 17.2159C46.2695 17.2238 46.4414 17.1953 46.602 17.1323C46.7625 17.0692 46.9081 16.973 47.0294 16.8498V16.8498ZM57.8758 13.2679L56.038 18.3727H54.6225L53.4807 15.2038L52.2982 18.3727H50.8827L49.0536 13.2679H50.44L51.64 16.7209L52.8837 13.2679H54.1302L55.339 16.7209L56.5739 13.2679H57.8758ZM61.9826 18.1267C61.8217 18.2401 61.6408 18.3216 61.4496 18.3669C61.2316 18.4229 61.0075 18.4504 60.7826 18.4489C60.2733 18.4812 59.7714 18.3144 59.3816 17.9832C59.2083 17.8035 59.0747 17.5891 58.9893 17.3539C58.904 17.1187 58.869 16.8681 58.8865 16.6184V14.5214H58.0972V13.3822H58.8807V12.1374H60.3544V13.3822H61.6185V14.5214H60.3544V16.5979C60.3417 16.779 60.4003 16.9578 60.5175 17.0958C60.579 17.1567 60.6525 17.2038 60.7333 17.2341C60.8141 17.2644 60.9004 17.2771 60.9865 17.2715C61.1964 17.2756 61.4016 17.2086 61.569 17.0812L61.9826 18.1267ZM67.4174 13.76C67.8058 14.1407 68 14.704 68 15.4499V18.3786H66.5437V15.6841C66.5677 15.3592 66.4735 15.0366 66.2786 14.7762C66.1798 14.6743 66.0601 14.5953 65.9278 14.5447C65.7955 14.4942 65.6538 14.4732 65.5126 14.4834C65.3509 14.4772 65.1897 14.5051 65.0392 14.5651C64.8888 14.6251 64.7524 14.716 64.6388 14.8319C64.5146 14.9715 64.419 15.1345 64.3575 15.3114C64.296 15.4883 64.2699 15.6757 64.2806 15.8628V18.3874H62.8243V11.3584H64.2806V13.8127C64.4817 13.6132 64.7231 13.4594 64.9883 13.3617C65.2787 13.2563 65.5855 13.2038 65.8942 13.2064C66.1719 13.1929 66.4495 13.2348 66.7109 13.3298C66.9724 13.4248 67.2125 13.571 67.4174 13.76ZM33.2208 28.4564C32.8185 28.3349 32.4463 28.1293 32.1286 27.8531L32.4781 27.1121C32.7618 27.3584 33.0901 27.5474 33.4451 27.6686C33.8347 27.8095 34.2456 27.8818 34.6596 27.8824C35.0881 27.9085 35.5148 27.8066 35.8858 27.5895C36.0102 27.5099 36.1126 27.4 36.1834 27.2699C36.2542 27.1398 36.2911 26.9939 36.2907 26.8456C36.2947 26.7424 36.2771 26.6395 36.2389 26.5436C36.2008 26.4478 36.143 26.361 36.0693 26.2891C35.9131 26.1405 35.7261 26.0284 35.5217 25.9611C35.3062 25.885 34.9975 25.8 34.6014 25.7063C34.193 25.6127 33.7912 25.4924 33.3985 25.3461C33.0964 25.227 32.8276 25.0361 32.615 24.7896C32.3842 24.5024 32.268 24.1391 32.2888 23.7704C32.2881 23.429 32.3896 23.0953 32.58 22.8127C32.7901 22.5079 33.0835 22.2709 33.4247 22.1303C33.8702 21.9452 34.3497 21.8573 34.8315 21.8726C35.22 21.872 35.6068 21.9232 35.9819 22.0249C36.3294 22.1111 36.6588 22.2588 36.9547 22.4613L36.6431 23.2198C36.3669 23.0445 36.068 22.9085 35.7547 22.8156C35.4549 22.7266 35.1441 22.6803 34.8315 22.678C34.41 22.6479 33.9897 22.7503 33.6286 22.9709C33.5039 23.0535 33.4018 23.1662 33.3316 23.2987C33.2614 23.4312 33.2253 23.5793 33.2266 23.7294C33.223 23.8331 33.2413 23.9363 33.2805 24.0323C33.3197 24.1282 33.3788 24.2147 33.4538 24.2859C33.6165 24.4339 33.8079 24.5466 34.0159 24.6168C34.3139 24.7179 34.6173 24.802 34.9247 24.8687C35.3285 24.9638 35.7255 25.0861 36.113 25.2348C36.4118 25.3541 36.6782 25.5428 36.8907 25.7854C37.1196 26.0645 37.236 26.4199 37.2169 26.7812C37.2162 27.1214 37.1148 27.4538 36.9256 27.7359C36.7075 28.0449 36.4036 28.2823 36.0518 28.4183C35.6019 28.598 35.1203 28.6837 34.6363 28.6702C34.1562 28.6754 33.6783 28.6032 33.2208 28.4564V28.4564ZM40.211 28.3363C39.8202 28.1227 39.4949 27.8057 39.2702 27.4196C39.0507 27.0154 38.9357 26.5622 38.9357 26.1017C38.9357 25.6411 39.0507 25.188 39.2702 24.7837C39.4951 24.3994 39.8205 24.0844 40.211 23.8729C40.631 23.6511 41.0998 23.5393 41.5741 23.5478C41.9941 23.54 42.4098 23.6344 42.7857 23.8231C43.1349 23.9989 43.4232 24.2765 43.6129 24.6197L42.9226 25.0649C42.7788 24.8363 42.578 24.6495 42.3401 24.5231C42.1009 24.4019 41.8361 24.3406 41.5683 24.3444C41.2635 24.3411 40.9628 24.4157 40.6945 24.5612C40.4354 24.7056 40.2223 24.9208 40.0799 25.1821C39.9284 25.4664 39.8522 25.7851 39.8586 26.1075C39.8512 26.4339 39.9275 26.7566 40.0799 27.0447C40.2223 27.306 40.4354 27.5212 40.6945 27.6656C40.9623 27.8125 41.2633 27.8871 41.5683 27.8824C41.8361 27.8862 42.1009 27.8249 42.3401 27.7037C42.578 27.5773 42.7788 27.3905 42.9226 27.1619L43.6245 27.5778C43.4335 27.9214 43.1457 28.2006 42.7974 28.3802C42.4235 28.5763 42.0074 28.6768 41.5857 28.6731C41.1091 28.6772 40.6395 28.5571 40.2227 28.3246L40.211 28.3363ZM49.8458 24.0896C50.0442 24.3087 50.1962 24.566 50.2929 24.8459C50.3895 25.1258 50.4286 25.4225 50.408 25.718V28.6116H49.5021V25.8205C49.5317 25.4227 49.4064 25.0289 49.1526 24.7222C49.0209 24.593 48.8637 24.4931 48.6911 24.429C48.5184 24.3649 48.3343 24.3381 48.1507 24.3503C47.9373 24.3378 47.7236 24.3699 47.5231 24.4445C47.3226 24.5191 47.1396 24.6346 46.9857 24.7837C46.8364 24.9508 46.7219 25.1463 46.6489 25.3585C46.5758 25.5708 46.5458 25.7956 46.5604 26.0197V28.6116H45.6546V21.5826H46.5604V24.3064C46.7596 24.0494 47.0215 23.8487 47.3206 23.7235C47.6448 23.5861 47.994 23.5182 48.3458 23.5244C48.6218 23.5108 48.8976 23.5527 49.1572 23.6478C49.4168 23.7428 49.6549 23.8891 49.8575 24.0779L49.8458 24.0896ZM53.8623 28.3363C53.4733 28.1232 53.1507 27.8059 52.9303 27.4196C52.7126 27.0148 52.5986 26.5619 52.5986 26.1017C52.5986 25.6415 52.7126 25.1885 52.9303 24.7837C53.151 24.3991 53.4737 24.0838 53.8623 23.8729C54.2756 23.6582 54.734 23.5462 55.1992 23.5462C55.6643 23.5462 56.1227 23.6582 56.536 23.8729C56.9218 24.0857 57.2421 24.4007 57.4622 24.7837C57.6799 25.1885 57.7939 25.6415 57.7939 26.1017C57.7939 26.5619 57.6799 27.0148 57.4622 27.4196C57.2424 27.8044 56.9221 28.1214 56.536 28.3363C56.1236 28.5536 55.6648 28.6672 55.1992 28.6672C54.7335 28.6672 54.2748 28.5536 53.8623 28.3363V28.3363ZM56.0642 27.6481C56.3188 27.5 56.5268 27.2828 56.6642 27.0213C56.8059 26.7336 56.8796 26.4169 56.8796 26.0958C56.8796 25.7748 56.8059 25.458 56.6642 25.1703C56.5265 24.9105 56.3185 24.6953 56.0642 24.5495C55.7983 24.4071 55.5018 24.3327 55.2006 24.3327C54.8994 24.3327 54.6029 24.4071 54.337 24.5495C54.0832 24.6968 53.8746 24.9116 53.7341 25.1703C53.5886 25.4569 53.5128 25.7741 53.5128 26.0958C53.5128 26.4176 53.5886 26.7347 53.7341 27.0213C53.8743 27.2817 54.0829 27.4985 54.337 27.6481C54.6017 27.7942 54.8987 27.8708 55.2006 27.8708C55.5025 27.8708 55.7996 27.7942 56.0642 27.6481V27.6481ZM60.7971 28.3363C60.409 28.1231 60.0874 27.8058 59.868 27.4196C59.6503 27.0148 59.5363 26.5619 59.5363 26.1017C59.5363 25.6415 59.6503 25.1885 59.868 24.7837C60.0877 24.3994 60.4094 24.084 60.7971 23.8729C61.2113 23.6594 61.67 23.548 62.1355 23.548C62.6009 23.548 63.0597 23.6594 63.4738 23.8729C63.8587 24.0858 64.178 24.4009 64.3971 24.7837C64.6148 25.1885 64.7288 25.6415 64.7288 26.1017C64.7288 26.5619 64.6148 27.0148 64.3971 27.4196C64.1783 27.8042 63.859 28.1212 63.4738 28.3363C63.0608 28.5536 62.6016 28.6672 62.1355 28.6672C61.6693 28.6672 61.2101 28.5536 60.7971 28.3363V28.3363ZM63.002 27.6481C63.2557 27.4998 63.4627 27.2826 63.599 27.0213C63.7434 26.7344 63.8186 26.4174 63.8186 26.0958C63.8186 25.7743 63.7434 25.4573 63.599 25.1703C63.4624 24.9107 63.2554 24.6954 63.002 24.5495C62.7345 24.4017 62.4333 24.327 62.1282 24.3327C61.823 24.3262 61.5216 24.401 61.2544 24.5495C60.9991 24.6959 60.7894 24.9109 60.6486 25.1703C60.5031 25.4569 60.4273 25.7741 60.4273 26.0958C60.4273 26.4176 60.5031 26.7347 60.6486 27.0213C60.8035 27.2845 61.0298 27.4979 61.301 27.6363C61.5666 27.7894 61.8688 27.8664 62.1748 27.8589C62.4689 27.8593 62.758 27.7826 63.0136 27.6363L63.002 27.6481ZM66.931 21.5709H67.8369V28.5999H66.931V21.5709Z" fill="#0A0A0A"/>
</svg>
