<svg width="24" height="30" viewBox="0 0 24 30" fill="none" xmlns="http://www.w3.org/2000/svg">
<path fill-rule="evenodd" clip-rule="evenodd" d="M4.93558 3.06555L11.5033 9.11676V9.11537V3.07951H12.7818V9.14384L19.379 3.06555V9.96483H22.0876V19.9164H19.3873V26.0598L12.7818 20.2564V26.1265H11.5033V20.3521L4.94302 26.1303V19.9164H2.23438V9.96483H4.93558V3.06555ZM10.5395 11.2277H3.51285V18.6535H4.94141V16.3111L10.5395 11.2277ZM6.22143 16.8715V23.3123L11.5033 18.6602V12.074L6.22143 16.8715ZM12.8186 18.5986V12.0678L18.102 16.8656V19.9164H18.1088V23.2465L12.8186 18.5986ZM19.3873 18.6535H20.8091V11.2277H13.8348L19.3873 16.2585V18.6535ZM18.1005 9.96483V5.97042L13.7651 9.96483H18.1005ZM10.5494 9.96483H6.21406V5.97042L10.5494 9.96483Z" fill="black"/>
</svg>
