<svg width="12" height="13" viewBox="0 0 12 13" fill="none" xmlns="http://www.w3.org/2000/svg">
<g clip-path="url(#clip0_1199_4642)">
<path fill-rule="evenodd" clip-rule="evenodd" d="M10.2515 1.75218C9.12363 0.622833 7.62353 0.000572983 6.0252 0C2.7317 0 0.051282 2.68013 0.050136 5.9745C0.049563 7.02763 0.324882 8.05557 0.84773 8.96147L0 12.0579L3.16745 11.227C4.0401 11.7032 5.02277 11.9539 6.02263 11.9542H6.0252C9.31813 11.9542 11.9989 9.27373 12 5.97937C12.0006 4.38277 11.3797 2.88182 10.2515 1.75247V1.75218ZM6.0252 10.9451H6.0232C5.1322 10.9449 4.25813 10.7053 3.4955 10.253L3.31414 10.1453L1.43447 10.6383L1.93611 8.8056L1.81808 8.61767C1.32101 7.82697 1.0583 6.91303 1.05887 5.9748C1.06002 3.23679 3.28778 1.00902 6.02723 1.00902C7.35367 1.0096 8.6005 1.52672 9.53817 2.46555C10.4759 3.4041 10.9918 4.65207 10.9913 5.9788C10.9901 8.7171 8.76237 10.9449 6.0252 10.9449V10.9451ZM8.74917 7.2259C8.5999 7.15113 7.86593 6.79013 7.72897 6.7403C7.59203 6.69043 7.49263 6.66553 7.3932 6.81507C7.2938 6.96463 7.0076 7.30097 6.9205 7.40037C6.8334 7.50007 6.7463 7.5124 6.59703 7.4376C6.4478 7.36283 5.96677 7.20527 5.39637 6.69673C4.9526 6.3008 4.6529 5.81207 4.56583 5.6625C4.47873 5.51297 4.55667 5.43217 4.63113 5.35797C4.69817 5.29093 4.7804 5.1835 4.85517 5.0964C4.92997 5.0093 4.9546 4.94687 5.00443 4.84743C5.0543 4.74773 5.02937 4.66067 4.99213 4.58587C4.95487 4.5111 4.65637 3.77623 4.53173 3.47743C4.41053 3.18636 4.28737 3.2259 4.19597 3.22103C4.10887 3.21673 4.00947 3.21587 3.90977 3.21587C3.81007 3.21587 3.64847 3.25312 3.51153 3.40267C3.3746 3.5522 2.98897 3.91347 2.98897 4.64803C2.98897 5.3826 3.52387 6.09283 3.59863 6.19253C3.6734 6.29223 4.65147 7.80003 6.14897 8.44693C6.5051 8.60077 6.78327 8.69273 7.00013 8.7615C7.3577 8.87523 7.68313 8.8592 7.9404 8.8208C8.2272 8.77783 8.82367 8.45953 8.948 8.11087C9.07233 7.7622 9.07233 7.4631 9.0351 7.40093C8.99787 7.33877 8.89817 7.30123 8.7489 7.22647L8.74917 7.2259Z" fill="#111B21"/>
</g>
<defs>
<clipPath id="clip0_1199_4642">
<rect width="12" height="12.0667" fill="white"/>
</clipPath>
</defs>
</svg>
